<?xml version="1.0" standalone="yes"?>

<svg version="1.1" viewBox="0.0 0.0 456.3333333333333 453.4199475065617" fill="none" stroke="none" stroke-linecap="square" stroke-miterlimit="10" xmlns="http://www.w3.org/2000/svg" xmlns:xlink="http://www.w3.org/1999/xlink"><clipPath id="p.0"><path d="m0 0l456.33334 0l0 453.41995l-456.33334 0l0 -453.41995z" clip-rule="nonzero"></path></clipPath><g clip-path="url(#p.0)"><path fill="#000000" fill-opacity="0.0" d="m0 0l456.33334 0l0 453.41995l-456.33334 0z" fill-rule="nonzero"></path><path fill="#000000" fill-opacity="0.0" d="m13.228347 229.07086l0 0c0 -117.67579 95.39507 -213.07086 213.07086 -213.07086l0 0c56.509903 0 110.70531 22.448475 150.66386 62.407013c39.958527 39.958534 62.407013 94.153946 62.407013 150.66385l0 0c0 117.67578 -95.39508 213.07086 -213.07088 213.07086l0 0c-117.67579 0 -213.07086 -95.39508 -213.07086 -213.07086z" fill-rule="nonzero"></path><path stroke="#000000" stroke-width="16.0" stroke-linejoin="round" stroke-linecap="butt" d="m13.228347 229.07086l0 0c0 -117.67579 95.39507 -213.07086 213.07086 -213.07086l0 0c56.509903 0 110.70531 22.448475 150.66386 62.407013c39.958527 39.958534 62.407013 94.153946 62.407013 150.66385l0 0c0 117.67578 -95.39508 213.07086 -213.07088 213.07086l0 0c-117.67579 0 -213.07086 -95.39508 -213.07086 -213.07086z" fill-rule="nonzero"></path><path fill="#000000" fill-opacity="0.0" d="m15.322835 50.929134l373.95276 0l0 160.62991l-373.95276 0z" fill-rule="nonzero"></path><path fill="#000000" d="m201.37929 218.91351q-4.796875 2.0625 -9.296875 5.4375q-4.484375 3.359375 -9.078125 7.359375q-4.578125 4.0 -9.515625 8.453125q-4.921875 4.4375 -10.640625 8.796875q-5.71875 4.34375 -12.453125 8.296875q-6.734375 3.953125 -14.890625 6.921875q-8.156242 2.984375 -17.968742 4.734375q-9.8125 1.765625 -21.734375 1.765625q-13.171875 0 -23.78125 -5.328125q-10.593754 -5.3125 -18.109379 -14.34375q-7.515625 -9.046875 -11.578125 -21.0q-4.046875 -11.96875 -4.046875 -25.15625q0 -8.984375 1.953125 -19.28125q1.953125 -10.296875 5.609375 -20.984375q3.671875 -10.703125 8.9375 -21.34375q5.28125 -10.65625 11.968754 -20.421883q6.6875 -9.765625 14.6875 -18.109375q8.015625 -8.34375 17.09375 -14.546875q9.09375 -6.203125 19.140625 -9.71875q10.0625 -3.515625 20.906242 -3.515625q7.03125 0 14.25 2.5q7.234375 2.484375 12.984375 7.65625q5.765625 5.171875 9.421875 13.09375q3.671875 7.90625 3.671875 18.640625q0 7.234375 -2.296875 14.609383q-2.296875 7.359375 -6.296875 14.15625q-4.0 6.78125 -9.421875 12.75q-5.421875 5.953125 -11.671875 10.296875q-6.25 4.34375 -12.984375 6.890625q-6.734375 2.53125 -13.484367 2.53125q-8.875 0 -13.28125 -2.390625q-4.390625 -2.390625 -4.390625 -6.890625q0 -0.78125 -0.046875 -1.84375q-0.046875 -1.078125 -0.046875 -2.25q0 -1.765625 0.1875 -3.671875q0.203125 -1.90625 0.78125 -3.46875q0.59375 -1.5625 1.71875 -2.53125q1.125 -0.984375 3.078125 -0.984375q1.171875 0 2.046875 0.34375q0.875 0.34375 1.953125 0.734375q1.078125 0.390625 2.578125 0.734375q1.515625 0.34375 3.859375 0.34375q6.25 0 12.640617 -2.734375q6.40625 -2.734375 11.53125 -7.71875q5.125 -4.984375 8.390625 -11.859375q3.28125 -6.890625 3.28125 -15.187508q0 -4.390625 -1.171875 -8.34375q-1.171875 -3.96875 -3.8125 -6.9375q-2.625 -2.984375 -6.78125 -4.78125q-4.15625 -1.8125 -10.109375 -1.8125q-7.03125 0 -13.718742 3.078125q-6.6875 3.078125 -12.84375 8.359375q-6.15625 5.265625 -11.671875 12.5q-5.515625 7.2187576 -10.203125 15.468758q-4.6875 8.25 -8.453125 17.1875q-3.75 8.9375 -6.390625 17.828125q-2.640625 8.875 -4.0625 17.234375q-1.40625 8.34375 -1.40625 15.375q0 10.0625 2.484375 17.53125q2.5 7.46875 7.078125 12.453125q4.59375 4.96875 11.234375 7.421875q6.640625 2.4375 14.953125 2.4375q10.34375 0 19.28125 -2.578125q8.937492 -2.59375 17.031242 -6.796875q8.109375 -4.203125 15.671875 -9.46875q7.578125 -5.28125 15.140625 -10.59375q7.578125 -5.328125 15.4375 -10.15625q7.859375 -4.84375 16.65625 -8.15625l0 20.984375zm143.75002 -40.234375q-3.421875 12.015625 -5.484375 22.421875q-2.046875 10.390625 -2.046875 18.015625q0 6.640625 2.78125 10.40625q2.796875 3.75 9.234375 3.75q2.4375 0 5.859375 -1.40625q3.421875 -1.421875 7.8125 -4.453125q4.390625 -3.03125 9.8125 -7.8125q5.421875 -4.78125 12.0625 -11.421875q0.296875 0.578125 1.171875 2.734375q0.78125 1.859375 2.1875 5.625q1.421875 3.75 3.96875 10.296875q-7.328125 7.703125 -14.703125 13.5625q-7.375 5.859375 -14.359375 9.828125q-6.96875 3.953125 -13.375 5.953125q-6.390625 2.0 -11.765625 2.0q-6.15625 0 -11.4375 -2.296875q-5.265625 -2.296875 -9.125 -6.6875q-3.84375 -4.390625 -6.09375 -10.78125q-2.25 -6.40625 -2.25 -14.609375q0 -2.828125 0.578125 -7.125q0.59375 -4.296875 1.71875 -9.765625q1.125 -5.46875 2.734375 -11.96875q1.609375 -6.5 3.5625 -13.71875q-13.078125 1.359375 -25.09375 2.53125q-12.015625 1.171875 -23.921875 2.25q-2.734375 8.203125 -5.421875 16.0625q-2.6875 7.859375 -5.1875 14.75q-2.4843903 6.890625 -4.5937653 12.609375q-2.09375 5.703125 -3.546875 9.703125q-4.796875 10.359375 -9.34375 14.65625q-4.53125 4.296875 -8.140625 4.296875q-2.34375 0 -4.59375 -0.78125q-2.25 -0.78125 -4.015625 -2.25q-1.75 -1.46875 -2.78125 -3.515625q-1.015625 -2.046875 -1.015625 -4.59375q0 -1.5625 0.390625 -3.03125q4.109375 -14.9375 8.9375 -28.84375q4.828125 -13.921875 9.8125 -27.109375q-5.375 0 -10.3125 -0.828125q-4.921875 -0.828125 -9.125 -2.875q-4.1875 -2.0625 -7.46875 -5.671875q-3.265625 -3.609375 -5.421875 -9.171875q-0.390625 -1.765625 -0.640625 -3.125q-0.234375 -1.375 -0.234375 -2.734375q0 -4.296875 3.03125 -4.296875q1.859375 0 4.09375 2.0q2.25 2.0 5.765625 6.390625q4.59375 -0.1875 9.171875 -0.28125q4.59375 -0.109375 9.875 -0.109375l9.375 0q3.515625 -9.078125 6.6875 -17.515625q3.1718903 -8.453125 5.9062653 -16.5625q1.65625 -5.171875 2.625 -10.343758q0.984375 -5.1875 0.984375 -9.875q0 -3.8125 -0.6875 -7.03125q-0.671875 -3.21875 -2.234375 -5.46875q-1.5625 -2.25 -4.015625 -3.515625q-2.4375153 -1.265625 -6.0468903 -1.265625q-2.921875 0 -6.78125 0.984375q-3.859375 0.96875 -8.546875 3.171875q-4.6875 2.1875 -10.203125 5.75q-5.515625 3.5625 -11.96875 8.84375q-2.25 1.859375 -4.15625 2.640625q-1.890625 0.78125 -3.453125 0.78125q-0.78125 0 -1.171875 -2.59375q-0.390625 -2.59375 -0.390625 -6.390625q0 -5.078125 2.390625 -9.671875q2.390625 -4.59375 6.390625 -8.453125q4.0 -3.859375 9.21875 -7.03125q5.234375 -3.171875 10.75 -5.359375q5.515625 -2.203125 10.984375 -3.375q5.46875 -1.171875 10.0625 -1.171875q6.8437653 0 13.093765 1.859375q6.25 1.84375 10.984375 5.953125q4.734375 4.09375 7.515625 10.640625q2.78125 6.546875 2.78125 15.921875q0 4.390625 -1.03125 10.75q-1.015625 6.34375 -2.78125 13.906258q-1.75 7.5625 -4.140625 16.109375q-2.390625 8.546875 -5.125 17.4375q10.046875 -0.6875 22.640625 -1.359375q12.609375 -0.6875 25.296875 -1.375q4.984375 -16.3125 10.984375 -33.734375q6.015625 -17.437508 12.75 -34.234383q2.25 -5.5625 5.90625 -8.875q3.671875 -3.328125 8.640625 -3.328125q2.0625 0 3.953125 0.59375q1.90625 0.578125 3.375 1.796875q1.46875 1.21875 2.296875 3.125q0.828125 1.90625 0.828125 4.4375q0 2.25 -0.296875 5.234375q-0.28125 2.96875 -1.5625 6.390625q-2.234375 6.046875 -4.78125 12.9375q-2.53125 6.890625 -5.125 14.171883q-2.59375 7.265625 -5.1875 14.890625q-2.578125 7.609375 -4.921875 15.125q6.15625 -0.390625 10.734375 -0.734375q4.59375 -0.34375 6.9375 -0.53125q1.078125 -0.09375 2.0 -0.140625q0.9375 -0.0625 1.71875 -0.0625q2.921875 0 4.734375 0.59375q1.8125 0.578125 2.828125 1.65625q1.03125 1.078125 1.421875 2.546875q0.390625 1.453125 0.390625 3.3125q0 2.046875 -0.890625 3.421875q-0.875 1.359375 -2.1875 2.203125q-1.3125 0.828125 -2.78125 1.171875q-1.46875 0.328125 -2.734375 0.4375q-2.734375 0.28125 -3.90625 0.4375q-1.171875 0.140625 -1.671875 0.1875q-0.484375 0.046875 -0.625 0.109375q-0.140625 0.046875 -0.734375 0.09375q-0.578125 0.046875 -2.046875 0.140625q-1.46875 0.09375 -4.5 0.390625q-3.515625 0.390625 -6.890625 0.6875q-3.359375 0.296875 -6.671875 0.578125z" fill-rule="nonzero"></path><path fill="#000000" fill-opacity="0.0" d="m133.70079 272.09448l185.19685 0l0 112.44095l-185.19685 0z" fill-rule="nonzero"></path><path fill="#000000" d="m155.59213 338.59824l41.28125 -17.375l3.75 11.609375l-30.140625 11.71875l30.140625 11.71875l-3.75 11.609375l-41.28125 -17.375l0 -11.90625zm62.012344 52.421875l-14.6875 0l32.265625 -92.9375l14.5 0l-32.078125 92.9375zm79.405106 -40.515625l-41.28125 17.375l-3.75 -11.609375l30.140625 -11.71875l-30.140625 -11.71875l3.75 -11.609375l41.28125 17.375l0 11.90625z" fill-rule="nonzero"></path></g></svg>

